<mxfile host="app.diagrams.net" modified="2024-04-01T06:19:09.858Z" agent="Mozilla/5.0 (Windows NT 10.0; Win64; x64; rv:124.0) Gecko/20100101 Firefox/124.0" etag="JMIHaPqMGdhM6fpJggAW" scale="1" border="0" version="24.0.7" type="device">
  <diagram name="Page-1" id="zeUAoeYTYEMwCBAbQ9nX">
    <mxGraphModel dx="3137" dy="1163" grid="1" gridSize="10" guides="1" tooltips="1" connect="1" arrows="1" fold="1" page="1" pageScale="1" pageWidth="850" pageHeight="1100" math="0" shadow="0">
      <root>
        <mxCell id="0" />
        <mxCell id="1" parent="0" />
        <mxCell id="qCNQR4URj5oET9t-w2uO-11" value="" style="strokeWidth=1;shadow=0;dashed=0;align=center;html=1;shape=mxgraph.mockup.containers.browserWindow;rSize=0;strokeColor=#666666;strokeColor2=#008cff;strokeColor3=#c4c4c4;mainText=,;recursiveResize=0;" parent="1" vertex="1">
          <mxGeometry x="-825" y="30" width="800" height="1390" as="geometry" />
        </mxCell>
        <mxCell id="qCNQR4URj5oET9t-w2uO-12" value="Page 1" style="strokeWidth=1;shadow=0;dashed=0;align=center;html=1;shape=mxgraph.mockup.containers.anchor;fontSize=17;fontColor=#666666;align=left;whiteSpace=wrap;" parent="qCNQR4URj5oET9t-w2uO-11" vertex="1">
          <mxGeometry x="60" y="12" width="110" height="26" as="geometry" />
        </mxCell>
        <mxCell id="qCNQR4URj5oET9t-w2uO-13" value="https://www.draw.io" style="strokeWidth=1;shadow=0;dashed=0;align=center;html=1;shape=mxgraph.mockup.containers.anchor;rSize=0;fontSize=17;fontColor=#666666;align=left;" parent="qCNQR4URj5oET9t-w2uO-11" vertex="1">
          <mxGeometry x="130" y="60" width="250" height="26" as="geometry" />
        </mxCell>
        <mxCell id="qCNQR4URj5oET9t-w2uO-26" value="Navbar" style="html=1;shadow=0;dashed=0;fillColor=#343A40;strokeColor=none;fontSize=16;fontColor=#ffffff;align=left;spacing=15;" parent="qCNQR4URj5oET9t-w2uO-11" vertex="1">
          <mxGeometry y="110" width="800" height="60" as="geometry" />
        </mxCell>
        <mxCell id="qCNQR4URj5oET9t-w2uO-27" value="Home" style="fillColor=none;strokeColor=none;fontSize=14;fontColor=#ffffff;align=center;" parent="qCNQR4URj5oET9t-w2uO-26" vertex="1">
          <mxGeometry width="70" height="40" relative="1" as="geometry">
            <mxPoint x="70" y="10" as="offset" />
          </mxGeometry>
        </mxCell>
        <mxCell id="qCNQR4URj5oET9t-w2uO-28" value="Features" style="fillColor=none;strokeColor=none;fontSize=14;fontColor=#9A9DA0;align=center;" parent="qCNQR4URj5oET9t-w2uO-26" vertex="1">
          <mxGeometry width="70" height="40" relative="1" as="geometry">
            <mxPoint x="140" y="10" as="offset" />
          </mxGeometry>
        </mxCell>
        <mxCell id="qCNQR4URj5oET9t-w2uO-29" value="Pricing" style="fillColor=none;strokeColor=none;fontSize=14;fontColor=#9A9DA0;align=center;spacingRight=0;" parent="qCNQR4URj5oET9t-w2uO-26" vertex="1">
          <mxGeometry width="80" height="40" relative="1" as="geometry">
            <mxPoint x="210" y="10" as="offset" />
          </mxGeometry>
        </mxCell>
        <mxCell id="qCNQR4URj5oET9t-w2uO-30" value="About" style="fillColor=none;strokeColor=none;fontSize=14;fontColor=#9A9DA0;align=center;" parent="qCNQR4URj5oET9t-w2uO-26" vertex="1">
          <mxGeometry width="80" height="40" relative="1" as="geometry">
            <mxPoint x="290" y="10" as="offset" />
          </mxGeometry>
        </mxCell>
        <mxCell id="qCNQR4URj5oET9t-w2uO-31" value="Search" style="html=1;shadow=0;dashed=0;shape=mxgraph.bootstrap.rrect;rSize=5;fontSize=14;fontColor=#1CA5B8;strokeColor=#1CA5B8;fillColor=none;" parent="qCNQR4URj5oET9t-w2uO-26" vertex="1">
          <mxGeometry x="1" width="70" height="40" relative="1" as="geometry">
            <mxPoint x="-80" y="10" as="offset" />
          </mxGeometry>
        </mxCell>
        <mxCell id="qCNQR4URj5oET9t-w2uO-32" value="Search" style="html=1;shadow=0;dashed=0;shape=mxgraph.bootstrap.rrect;rSize=5;fontSize=14;fontColor=#6C767D;strokeColor=#CED4DA;fillColor=#ffffff;align=left;spacing=10;" parent="qCNQR4URj5oET9t-w2uO-26" vertex="1">
          <mxGeometry x="1" width="180" height="40" relative="1" as="geometry">
            <mxPoint x="-270" y="10" as="offset" />
          </mxGeometry>
        </mxCell>
        <mxCell id="qCNQR4URj5oET9t-w2uO-33" value="" style="rounded=0;whiteSpace=wrap;html=1;" parent="qCNQR4URj5oET9t-w2uO-11" vertex="1">
          <mxGeometry x="10" y="180" width="770" height="190" as="geometry" />
        </mxCell>
        <mxCell id="qCNQR4URj5oET9t-w2uO-35" value="&lt;font style=&quot;font-size: 30px;&quot; face=&quot;Verdana&quot;&gt;Guitars Carousel&lt;/font&gt;" style="text;html=1;align=center;verticalAlign=middle;whiteSpace=wrap;rounded=0;opacity=50;" parent="qCNQR4URj5oET9t-w2uO-11" vertex="1">
          <mxGeometry x="50" y="200" width="670" height="150" as="geometry" />
        </mxCell>
        <mxCell id="qCNQR4URj5oET9t-w2uO-38" value="" style="rounded=0;whiteSpace=wrap;html=1;" parent="qCNQR4URj5oET9t-w2uO-11" vertex="1">
          <mxGeometry x="75" y="390" width="180" height="190" as="geometry" />
        </mxCell>
        <mxCell id="qCNQR4URj5oET9t-w2uO-41" value="" style="rounded=0;whiteSpace=wrap;html=1;" parent="qCNQR4URj5oET9t-w2uO-11" vertex="1">
          <mxGeometry x="285" y="390" width="180" height="190" as="geometry" />
        </mxCell>
        <mxCell id="qCNQR4URj5oET9t-w2uO-42" value="" style="rounded=0;whiteSpace=wrap;html=1;" parent="qCNQR4URj5oET9t-w2uO-11" vertex="1">
          <mxGeometry x="515" y="390" width="180" height="190" as="geometry" />
        </mxCell>
        <mxCell id="qCNQR4URj5oET9t-w2uO-43" value="&lt;h1&gt;Guitar 1&lt;br&gt;&lt;/h1&gt;Some text/image" style="text;html=1;whiteSpace=wrap;overflow=hidden;rounded=0;" parent="qCNQR4URj5oET9t-w2uO-11" vertex="1">
          <mxGeometry x="80" y="390" width="180" height="120" as="geometry" />
        </mxCell>
        <mxCell id="qCNQR4URj5oET9t-w2uO-44" value="Buy now" style="rounded=1;fillColor=#0057D8;align=center;strokeColor=none;html=1;whiteSpace=wrap;fontColor=#ffffff;fontSize=12;sketch=0;" parent="qCNQR4URj5oET9t-w2uO-11" vertex="1">
          <mxGeometry x="165" y="520" width="86" height="27" as="geometry" />
        </mxCell>
        <mxCell id="qCNQR4URj5oET9t-w2uO-45" value="" style="html=1;shadow=0;dashed=0;shape=mxgraph.atlassian.checkbox;fillColor=#008465;strokeColor=none;html=1;sketch=0;" parent="qCNQR4URj5oET9t-w2uO-11" vertex="1">
          <mxGeometry x="140" y="523" width="14" height="14" as="geometry" />
        </mxCell>
        <mxCell id="qCNQR4URj5oET9t-w2uO-46" value="Price" style="text;html=1;align=center;verticalAlign=middle;whiteSpace=wrap;rounded=0;" parent="qCNQR4URj5oET9t-w2uO-11" vertex="1">
          <mxGeometry x="80" y="515" width="60" height="30" as="geometry" />
        </mxCell>
        <mxCell id="qCNQR4URj5oET9t-w2uO-47" value="&lt;h1 style=&quot;margin-top: 0px;&quot;&gt;Tagline&lt;/h1&gt;&lt;p&gt;Explanation Text&lt;br&gt;&lt;/p&gt;" style="text;html=1;whiteSpace=wrap;overflow=hidden;rounded=0;" parent="qCNQR4URj5oET9t-w2uO-11" vertex="1">
          <mxGeometry x="328" y="610" width="180" height="120" as="geometry" />
        </mxCell>
        <mxCell id="qCNQR4URj5oET9t-w2uO-54" value="&#xa;&lt;h1&gt;Guitar 2&lt;br&gt;&lt;/h1&gt;Some text/image&#xa;&#xa;" style="text;html=1;whiteSpace=wrap;overflow=hidden;rounded=0;" parent="qCNQR4URj5oET9t-w2uO-11" vertex="1">
          <mxGeometry x="290" y="380" width="180" height="120" as="geometry" />
        </mxCell>
        <mxCell id="qCNQR4URj5oET9t-w2uO-55" value="Buy now" style="rounded=1;fillColor=#0057D8;align=center;strokeColor=none;html=1;whiteSpace=wrap;fontColor=#ffffff;fontSize=12;sketch=0;" parent="qCNQR4URj5oET9t-w2uO-11" vertex="1">
          <mxGeometry x="375" y="520" width="86" height="27" as="geometry" />
        </mxCell>
        <mxCell id="qCNQR4URj5oET9t-w2uO-56" value="Price" style="text;html=1;align=center;verticalAlign=middle;whiteSpace=wrap;rounded=0;" parent="qCNQR4URj5oET9t-w2uO-11" vertex="1">
          <mxGeometry x="290" y="515" width="60" height="30" as="geometry" />
        </mxCell>
        <mxCell id="qCNQR4URj5oET9t-w2uO-57" value="&lt;h1&gt;Guitar 3&lt;br&gt;&lt;/h1&gt;Some text/image" style="text;html=1;whiteSpace=wrap;overflow=hidden;rounded=0;" parent="qCNQR4URj5oET9t-w2uO-11" vertex="1">
          <mxGeometry x="520" y="390" width="180" height="120" as="geometry" />
        </mxCell>
        <mxCell id="qCNQR4URj5oET9t-w2uO-58" value="Buy now" style="rounded=1;fillColor=#0057D8;align=center;strokeColor=none;html=1;whiteSpace=wrap;fontColor=#ffffff;fontSize=12;sketch=0;" parent="qCNQR4URj5oET9t-w2uO-11" vertex="1">
          <mxGeometry x="605" y="520" width="86" height="27" as="geometry" />
        </mxCell>
        <mxCell id="qCNQR4URj5oET9t-w2uO-59" value="Price" style="text;html=1;align=center;verticalAlign=middle;whiteSpace=wrap;rounded=0;" parent="qCNQR4URj5oET9t-w2uO-11" vertex="1">
          <mxGeometry x="520" y="515" width="60" height="30" as="geometry" />
        </mxCell>
        <mxCell id="qCNQR4URj5oET9t-w2uO-61" value="" style="rounded=0;whiteSpace=wrap;html=1;" parent="qCNQR4URj5oET9t-w2uO-11" vertex="1">
          <mxGeometry x="130" y="710" width="200" height="140" as="geometry" />
        </mxCell>
        <mxCell id="qCNQR4URj5oET9t-w2uO-62" value="" style="rounded=0;whiteSpace=wrap;html=1;" parent="qCNQR4URj5oET9t-w2uO-11" vertex="1">
          <mxGeometry x="480" y="710" width="200" height="140" as="geometry" />
        </mxCell>
        <mxCell id="qCNQR4URj5oET9t-w2uO-65" value="" style="rounded=0;whiteSpace=wrap;html=1;" parent="qCNQR4URj5oET9t-w2uO-11" vertex="1">
          <mxGeometry x="130" y="880" width="200" height="140" as="geometry" />
        </mxCell>
        <mxCell id="qCNQR4URj5oET9t-w2uO-66" value="" style="rounded=0;whiteSpace=wrap;html=1;" parent="qCNQR4URj5oET9t-w2uO-11" vertex="1">
          <mxGeometry x="480" y="880" width="200" height="140" as="geometry" />
        </mxCell>
        <mxCell id="qCNQR4URj5oET9t-w2uO-68" value="&lt;div&gt;Feature&lt;/div&gt;&lt;div&gt;image&lt;/div&gt;&lt;div&gt;and text&lt;/div&gt;&lt;div&gt;(e.g. TV,&lt;/div&gt;&lt;div&gt;fitness,&lt;/div&gt;&lt;div&gt;games, &lt;br&gt;&lt;/div&gt;&lt;div&gt;music)&lt;br&gt;&lt;/div&gt;" style="text;html=1;align=center;verticalAlign=middle;whiteSpace=wrap;rounded=0;" parent="qCNQR4URj5oET9t-w2uO-11" vertex="1">
          <mxGeometry x="190" y="760" width="60" height="30" as="geometry" />
        </mxCell>
        <mxCell id="qCNQR4URj5oET9t-w2uO-70" value="Feature image and text" style="text;html=1;align=center;verticalAlign=middle;whiteSpace=wrap;rounded=0;" parent="qCNQR4URj5oET9t-w2uO-11" vertex="1">
          <mxGeometry x="200" y="930" width="60" height="30" as="geometry" />
        </mxCell>
        <mxCell id="qCNQR4URj5oET9t-w2uO-71" value="" style="rounded=0;whiteSpace=wrap;html=1;" parent="qCNQR4URj5oET9t-w2uO-11" vertex="1">
          <mxGeometry x="30" y="1300" width="740" height="60" as="geometry" />
        </mxCell>
        <mxCell id="qCNQR4URj5oET9t-w2uO-72" value="Footer" style="text;html=1;align=center;verticalAlign=middle;whiteSpace=wrap;rounded=0;" parent="qCNQR4URj5oET9t-w2uO-11" vertex="1">
          <mxGeometry x="385" y="1310" width="60" height="30" as="geometry" />
        </mxCell>
        <mxCell id="qCNQR4URj5oET9t-w2uO-73" value="" style="rounded=0;whiteSpace=wrap;html=1;" parent="qCNQR4URj5oET9t-w2uO-11" vertex="1">
          <mxGeometry x="185" y="1060" width="460" height="220" as="geometry" />
        </mxCell>
        <mxCell id="qCNQR4URj5oET9t-w2uO-74" value="&lt;font style=&quot;font-size: 27px;&quot;&gt;Buy Now - Call to Action&lt;/font&gt;" style="text;html=1;align=center;verticalAlign=middle;whiteSpace=wrap;rounded=0;" parent="qCNQR4URj5oET9t-w2uO-11" vertex="1">
          <mxGeometry x="277.5" y="1155" width="275" height="30" as="geometry" />
        </mxCell>
        <mxCell id="P29kAe8o6QDThcXjjrXm-2" value="Feature image and text" style="text;html=1;align=center;verticalAlign=middle;whiteSpace=wrap;rounded=0;" vertex="1" parent="qCNQR4URj5oET9t-w2uO-11">
          <mxGeometry x="560" y="930" width="60" height="30" as="geometry" />
        </mxCell>
        <mxCell id="P29kAe8o6QDThcXjjrXm-3" value="Feature image and text" style="text;html=1;align=center;verticalAlign=middle;whiteSpace=wrap;rounded=0;" vertex="1" parent="qCNQR4URj5oET9t-w2uO-11">
          <mxGeometry x="550" y="760" width="60" height="30" as="geometry" />
        </mxCell>
        <mxCell id="qCNQR4URj5oET9t-w2uO-25" value="Untitled Layer" parent="0" />
      </root>
    </mxGraphModel>
  </diagram>
</mxfile>
